<svg width="20" height="20" viewBox="0 0 20 20" fill="none" xmlns="http://www.w3.org/2000/svg">
<path d="M18.3334 10.0827C18.3334 11.731 17.8446 13.3422 16.9289 14.7127C16.0132 16.0831 14.7116 17.1513 13.1889 17.782C11.6661 18.4128 9.99046 18.5778 8.37388 18.2563C6.75731 17.9347 5.27239 17.141 4.1069 15.9755C2.94141 14.81 2.14771 13.3251 1.82615 11.7085C1.50459 10.092 1.66963 8.41633 2.30038 6.89355C2.93114 5.37076 3.99929 4.06922 5.36976 3.1535C6.74022 2.23779 8.35146 1.74902 9.9997 1.74902C11.0941 1.74902 12.1778 1.96458 13.1889 2.38339C14.2 2.80219 15.1187 3.41605 15.8925 4.1899C16.6664 4.96376 17.2802 5.88246 17.699 6.89355C18.1178 7.90463 18.3334 8.98831 18.3334 10.0827ZM14.586 7.20692L13.7387 6.35955V13.8353H6.70497C6.59802 13.8406 6.49251 13.809 6.40602 13.7459C6.35532 13.7054 6.31448 13.6539 6.28658 13.5953C6.25868 13.5368 6.24445 13.4726 6.24495 13.4077C6.24546 13.3429 6.26069 13.279 6.28951 13.2208C6.31832 13.1627 6.35996 13.1119 6.41128 13.0722C6.55678 12.9917 6.72495 12.9621 6.88918 12.988H12.8913V5.51744H8.51234V8.58692L7.84181 8.09429L7.17234 8.58692V5.51744H6.66497C6.32817 5.51828 6.00544 5.65259 5.76749 5.89093C5.52954 6.12928 5.39577 6.45223 5.39549 6.78902V13.4111C5.39577 13.7481 5.52969 14.0712 5.76787 14.3096C6.00604 14.548 6.32904 14.6822 6.66602 14.6827H14.586V7.20692Z" fill="white"/>
</svg>
