<svg width="20" height="20" viewBox="0 0 20 20" fill="none" xmlns="http://www.w3.org/2000/svg">
<path d="M18.4212 10.0002C18.4212 11.6657 17.9273 13.2938 17.002 14.6786C16.0767 16.0635 14.7615 17.1428 13.2228 17.7802C11.684 18.4176 9.99082 18.5843 8.35729 18.2594C6.72377 17.9345 5.22328 17.1324 4.04557 15.9547C2.86787 14.777 2.06584 13.2765 1.74091 11.643C1.41599 10.0095 1.58275 8.3163 2.22012 6.77756C2.85749 5.23881 3.93684 3.92362 5.32167 2.9983C6.70651 2.07299 8.33463 1.5791 10.0002 1.5791C12.2336 1.5791 14.3755 2.46632 15.9547 4.04557C17.534 5.62482 18.4212 7.76675 18.4212 10.0002ZM15.3959 7.59279C15.3951 7.3697 15.3061 7.15599 15.1484 6.99825C14.9906 6.8405 14.7769 6.75151 14.5538 6.75068H12.3917V6.48647C12.3912 6.2633 12.3023 6.04943 12.1445 5.89163C11.9867 5.73382 11.7728 5.64492 11.5496 5.64436H8.46542C8.24225 5.64492 8.02838 5.73382 7.87058 5.89163C7.71277 6.04943 7.62387 6.2633 7.62332 6.48647V6.74963H5.45911C5.23594 6.75018 5.02207 6.83908 4.86426 6.99689C4.70646 7.15469 4.61756 7.36856 4.617 7.59173V13.0296C4.61756 13.2528 4.70646 13.4667 4.86426 13.6245C5.02207 13.7823 5.23594 13.8712 5.45911 13.8717H14.5528C14.7759 13.8709 14.9896 13.7819 15.1473 13.6242C15.3051 13.4664 15.3941 13.2527 15.3949 13.0296L15.3959 7.59279ZM12.5623 10.3107C12.5623 10.8159 12.4125 11.3098 12.1318 11.7299C11.8511 12.15 11.4522 12.4775 10.9854 12.6708C10.5187 12.8642 10.0051 12.9149 9.50951 12.8164C9.01397 12.7179 8.55876 12.4747 8.20143 12.1175C7.8441 11.7603 7.6007 11.3052 7.50201 10.8097C7.40331 10.3142 7.45376 9.80059 7.64696 9.33375C7.84016 8.86692 8.16744 8.46785 8.58743 8.18701C9.00741 7.90616 9.50124 7.75615 10.0065 7.75594C10.6841 7.75594 11.334 8.02507 11.8133 8.50415C12.2926 8.98322 12.562 9.63303 12.5623 10.3107ZM8.29384 10.3107C8.29384 10.6494 8.39429 10.9805 8.58247 11.2622C8.77066 11.5438 9.03814 11.7633 9.35108 11.8929C9.66402 12.0226 10.0084 12.0565 10.3406 11.9904C10.6728 11.9243 10.978 11.7612 11.2175 11.5217C11.457 11.2822 11.6201 10.977 11.6862 10.6448C11.7523 10.3126 11.7184 9.96823 11.5887 9.65528C11.4591 9.34234 11.2396 9.07487 10.958 8.88668C10.6763 8.69849 10.3452 8.59805 10.0065 8.59805C9.55269 8.59916 9.11784 8.77999 8.79706 9.10096C8.47629 9.42193 8.29468 9.8569 8.29384 10.3107ZM11.1886 6.17279C11.1053 6.17279 11.0239 6.19748 10.9547 6.24375C10.8854 6.29001 10.8314 6.35577 10.7996 6.43271C10.7677 6.50965 10.7594 6.59431 10.7756 6.67598C10.7919 6.75766 10.832 6.83268 10.8909 6.89157C10.9497 6.95045 11.0248 6.99055 11.1064 7.0068C11.1881 7.02305 11.2728 7.01471 11.3497 6.98284C11.4266 6.95097 11.4924 6.897 11.5387 6.82776C11.5849 6.75852 11.6096 6.67711 11.6096 6.59384C11.6096 6.48217 11.5653 6.37507 11.4863 6.29611C11.4073 6.21715 11.3002 6.17279 11.1886 6.17279Z" fill="white"/>
</svg>
