<svg width="20" height="20" viewBox="0 0 20 20" fill="none" xmlns="http://www.w3.org/2000/svg">
<path d="M18.4212 10.0002C18.4212 11.6657 17.9273 13.2938 17.002 14.6786C16.0767 16.0635 14.7615 17.1428 13.2228 17.7802C11.684 18.4176 9.99082 18.5843 8.35729 18.2594C6.72377 17.9345 5.22328 17.1324 4.04557 15.9547C2.86787 14.777 2.06584 13.2765 1.74091 11.643C1.41599 10.0095 1.58275 8.3163 2.22012 6.77756C2.85749 5.23881 3.93684 3.92362 5.32167 2.9983C6.70651 2.07299 8.33463 1.5791 10.0002 1.5791C12.2336 1.5791 14.3755 2.46632 15.9547 4.04557C17.534 5.62482 18.4212 7.76675 18.4212 10.0002ZM14.2738 6.75805C14.3855 6.75805 14.4926 6.71369 14.5716 6.63473C14.6505 6.55576 14.6949 6.44867 14.6949 6.337C14.6949 6.22533 14.6505 6.11823 14.5716 6.03927C14.4926 5.9603 14.3855 5.91594 14.2738 5.91594H10.4349V5.7391C10.4349 5.62743 10.3905 5.52034 10.3116 5.44137C10.2326 5.36241 10.1255 5.31805 10.0138 5.31805C9.90217 5.31805 9.79508 5.36241 9.71611 5.44137C9.63715 5.52034 9.59279 5.62743 9.59279 5.7391V5.91594H5.75279C5.64112 5.91594 5.53402 5.9603 5.45506 6.03927C5.3761 6.11823 5.33174 6.22533 5.33174 6.337C5.33174 6.44867 5.3761 6.55576 5.45506 6.63473C5.53402 6.71369 5.64112 6.75805 5.75279 6.75805V12.1107C5.75307 12.2149 5.79467 12.3148 5.86847 12.3884C5.94227 12.462 6.04224 12.5033 6.14647 12.5033H9.47384L7.81279 14.7844C7.75083 14.8748 7.7266 14.9859 7.74526 15.0939C7.76392 15.202 7.82399 15.2985 7.91271 15.363C8.00142 15.4274 8.11178 15.4547 8.2203 15.439C8.32883 15.4234 8.42697 15.366 8.49384 15.2791L10.0275 13.1738L11.5296 15.277C11.5618 15.322 11.6025 15.3602 11.6494 15.3895C11.6963 15.4188 11.7485 15.4385 11.803 15.4476C11.8576 15.4567 11.9134 15.4549 11.9673 15.4425C12.0211 15.43 12.072 15.407 12.117 15.3749C12.162 15.3428 12.2002 15.3021 12.2295 15.2552C12.2588 15.2082 12.2785 15.156 12.2876 15.1015C12.2967 15.0469 12.2949 14.9911 12.2825 14.9373C12.27 14.8834 12.247 14.8325 12.2149 14.7875L10.5833 12.5033H13.8802C13.9842 12.503 14.0839 12.4616 14.1575 12.388C14.2311 12.3144 14.2725 12.2147 14.2728 12.1107V6.75805H14.2738ZM6.5949 7.22647H13.4317V11.6612H6.5949V7.22647Z" fill="white"/>
</svg>
